PathFileType	4	(X/Y/Z)	C:\Users\Basilio\Documents\Thesis Gigler\squatting_fais\c3dfiles\076\SLS_front_pre1\markers_experimental.trc
DataRate	CameraRate	NumFrames	NumMarkers	Units	OrigDataRate	OrigDataStartFrame	OrigNumFrames
200.000000	200.000000	4	61	mm	200.000000	774	1548
Frame#	Time	FHD			LBHD			RBHD			C7			T10			CLAV			LSHO			LUUPA			LMUPA			LDUPA			LLEP			LMEP			LRAD			LUL			LRFIN			RSHO			RUPA1			RMUPA			RDUPA			RLEP			RMEP			RRAD			RUL			RUFIN			LASI			RASI			USACR			LSACR			RSACR			LTHI1			LTHI2			LTHI3			LTHI4			LLFC			LMFC			LTIB1			LTIB2			LTIB3			LTIB4			LLMAL			LMMAL			LHEE			LMT1			LMT2			LMT5			RTHI			RTHI2			RTHI3			RTHI4			RLFC			RMFC			RTIB1			RTIB2			RTIB3			RTIB4			RLMAL			RMMAL			RHEE			RMT1			RMT2			RMT5			
		X1	Y1	Z1	X2	Y2	Z2	X3	Y3	Z3	X4	Y4	Z4	X5	Y5	Z5	X6	Y6	Z6	X7	Y7	Z7	X8	Y8	Z8	X9	Y9	Z9	X10	Y10	Z10	X11	Y11	Z11	X12	Y12	Z12	X13	Y13	Z13	X14	Y14	Z14	X15	Y15	Z15	X16	Y16	Z16	X17	Y17	Z17	X18	Y18	Z18	X19	Y19	Z19	X20	Y20	Z20	X21	Y21	Z21	X22	Y22	Z22	X23	Y23	Z23	X24	Y24	Z24	X25	Y25	Z25	X26	Y26	Z26	X27	Y27	Z27	X28	Y28	Z28	X29	Y29	Z29	X30	Y30	Z30	X31	Y31	Z31	X32	Y32	Z32	X33	Y33	Z33	X34	Y34	Z34	X35	Y35	Z35	X36	Y36	Z36	X37	Y37	Z37	X38	Y38	Z38	X39	Y39	Z39	X40	Y40	Z40	X41	Y41	Z41	X42	Y42	Z42	X43	Y43	Z43	X44	Y44	Z44	X45	Y45	Z45	X46	Y46	Z46	X47	Y47	Z47	X48	Y48	Z48	X49	Y49	Z49	X50	Y50	Z50	X51	Y51	Z51	X52	Y52	Z52	X53	Y53	Z53	X54	Y54	Z54	X55	Y55	Z55	X56	Y56	Z56	X57	Y57	Z57	X58	Y58	Z58	X59	Y59	Z59	X60	Y60	Z60	X61	Y61	Z61	

775	3.87	-219.4654541015626	945.1721801757815	-1043.362182617188	-360.2249145507813	882.468200683594	-1144.94482421875	-349.9985046386719	886.3523559570315	-992.3774414062502	-411.4786987304689	786.9576416015627	-1056.139404296875	-552.5928344726564	504.399871826172	-1024.376220703125	-301.7737731933594	686.6513061523439	-1065.470581054688	-334.2345581054688	755.2424316406251	-1211.893188476563	-196.0205535888672	727.7045288085939	-1296.005615234375	-162.2360076904297	739.1046752929689	-1261.685302734375	-130.0631561279297	727.1737060546876	-1312.511840820313	-80.1099319458008	712.0908203125001	-1328.682495117188	-66.86902618408205	646.2710571289064	-1285.78173828125	168.6006011962891	746.4882812500001	-1288.582885742188	162.6316070556641	755.5219726562501	-1353.266235351563	249.4949035644532	770.122741699219	-1290.922119140625	-324.2792358398438	752.1590576171876	-921.467468261719	-186.3134155273438	719.6990966796876	-832.4134521484377	-159.4803009033203	747.9158325195314	-861.9865722656252	-115.8111419677735	716.7844238281251	-832.6409301757815	-49.58214187622072	723.1925048828126	-841.6936645507815	-44.8873519897461	668.4297485351564	-895.2977294921877	188.1270751953125	755.5046997070314	-910.2918090820315	183.5553436279297	757.4230957031251	-844.3393554687502	261.9176940917969	780.9915161132815	-902.8674316406252	-426.4724121093751	363.1675720214844	-1138.729736328125	nan	nan	nan	-580.7523193359376	371.9438476562501	-1015.94384765625	-587.5515747070314	342.2545471191407	-1047.489624023438	-580.4329833984376	334.9322509765626	-991.7895507812502	-401.0620117187501	308.2827453613282	-1218.127807617188	-332.2583007812501	358.6944885253907	-1209.699584960938	-337.5404052734376	396.3662109375001	-1179.656616210938	-274.7077026367188	339.5807495117188	-1221.847045898438	-129.8227996826172	347.9217224121094	-1187.727172851563	-128.7300872802735	371.9986877441407	-1056.53173828125	-166.0346832275391	256.9400329589844	-1067.734130859375	-206.833969116211	200.1986236572266	-1119.700073242188	-188.5800933837891	208.4060516357422	-1078.785888671875	-255.5909271240235	174.2817840576172	-1037.245727539063	-375.5455932617188	104.2467651367188	-1076.596557617188	-349.8406372070313	128.3189544677735	-993.6146240234377	-440.849822998047	96.23365020751956	-1023.10693359375	-239.7464294433594	50.96610641479494	-1001.646606445313	-233.8813171386719	48.39204406738283	-1040.90087890625	-258.8922119140626	44.10904693603516	-1089.959228515625	-268.5719299316407	197.9320983886719	-865.545349121094	-209.4304351806641	228.4547882080079	-869.237243652344	-208.094955444336	263.9810180664063	-875.0262451171877	-136.6875610351563	195.2511291503907	-891.843200683594	-80.23728942871095	187.3870239257813	-899.8652954101565	-76.68743896484376	221.7299041748047	-1013.014831542969	57.90307617187501	210.0097961425782	-920.0925292968752	126.1293411254883	125.9920425415039	-902.9042968750002	136.5371398925782	172.9336090087891	-908.8951416015627	183.0060119628907	182.3601684570313	-942.292175292969	311.6785888671876	95.08680725097658	-920.4404907226565	302.6175537109376	127.3451766967774	-998.0300903320315	308.6498413085938	41.38591384887696	-965.944274902344	420.7996826171876	213.300765991211	-982.838073730469	416.2158203125001	220.9649505615235	-935.8615722656252	420.2477111816407	185.9570007324219	-884.4468994140627	
776	3.875	-219.5706634521485	945.0070800781252	-1043.443603515625	-360.1370849609376	882.2727661132815	-1145.016479492188	-350.0602111816407	886.1104736328127	-992.5220336914065	-411.4811401367189	786.6975097656252	-1056.345947265625	-552.4516601562501	504.1683654785157	-1024.49658203125	-301.7105712890626	686.3619384765626	-1065.56689453125	-334.1120605468751	755.0159912109376	-1212.0205078125	-195.8539276123047	727.4260253906251	-1296.081420898438	-162.0733947753907	738.8667602539064	-1261.68408203125	-129.6695709228516	726.9578247070314	-1312.477172851563	-79.81980133056642	711.8193969726564	-1328.694213867188	-66.76135253906251	646.0020751953126	-1285.6162109375	168.8417358398438	746.3146362304689	-1288.360717773438	162.896728515625	755.3433837890626	-1353.011962890625	249.6740875244141	770.002624511719	-1290.780029296875	-324.2700500488282	751.9198608398439	-921.6196289062502	-186.4100799560547	719.3590698242189	-832.4338378906252	-159.4944915771485	747.6450805664064	-861.9841308593752	-115.7911682128907	716.5511474609376	-832.575378417969	-49.62441253662111	722.9069824218751	-841.632751464844	-44.93106842041016	668.1717529296876	-895.1237792968752	188.1455230712891	755.3144531250001	-910.2044677734377	183.4960174560547	757.1456298828126	-844.1979980468752	261.8041687011719	780.711120605469	-902.704040527344	-426.8762512207032	363.9093627929688	-1139.4482421875	nan	nan	nan	-580.6779785156251	371.6704101562501	-1016.044799804688	-587.4423217773439	342.0276184082032	-1047.57568359375	-580.0635375976564	334.6674499511719	-991.9403076171877	-400.9749755859376	308.0480041503907	-1218.340087890625	-332.0900878906251	358.4104919433594	-1209.969116210938	-337.4863586425782	396.1896972656251	-1179.991088867188	-274.8393249511719	339.4478759765626	-1222.292602539063	-129.7929840087891	347.6900634765626	-1188.204711914063	-128.642562866211	371.7104797363282	-1056.826293945313	-165.9105377197266	256.7424926757813	-1067.969482421875	-207.8548736572266	199.9081268310547	-1120.376098632813	-188.4458770751953	208.3401031494141	-1078.95263671875	-255.5213317871094	173.6734008789063	-1037.6494140625	-375.4463806152344	104.1595535278321	-1076.745239257813	-349.4277648925782	127.5410385131836	-993.6475830078127	-440.8723449707032	96.19043731689456	-1023.172668457031	-239.7579498291016	51.04892349243165	-1001.739929199219	-233.8684539794922	48.38528060913087	-1040.908325195313	-258.8214721679688	44.01746368408204	-1089.993896484375	-268.3960266113282	197.5682220458985	-865.7171630859377	-209.2762603759766	228.0907745361329	-869.417907714844	-207.9635009765626	263.6964111328126	-875.2024536132815	-136.4929656982422	194.8839416503907	-892.136901855469	-80.12783813476564	187.1548461914063	-900.0791625976565	-76.38246917724611	221.4792938232422	-1013.216674804688	58.067440032959	209.8158721923829	-920.124206542969	126.4043960571289	125.8982543945313	-903.1474609375002	136.7168731689453	172.6967926025391	-909.1422119140627	183.2357177734375	182.1866607666016	-942.553894042969	311.9681396484376	94.92465209960939	-920.6389160156252	302.8223571777344	127.1991500854492	-998.4375000000002	308.7506103515626	41.14521789550782	-966.156921386719	421.0244750976564	213.0257110595704	-983.142517089844	416.4258117675782	220.997787475586	-935.8966064453127	420.6895751953126	185.6075134277344	-884.9580688476565	
777	3.88	-219.6095428466797	944.847595214844	-1043.482543945313	-360.0021972656251	882.020202636719	-1145.177368164063	-350.0978698730469	885.9022216796877	-992.6889648437502	-411.449188232422	786.4434204101565	-1056.547729492188	-552.2768554687501	503.9901123046876	-1024.515991210938	-301.6292724609376	686.1606445312501	-1065.645141601563	-333.9414062500001	754.7606201171876	-1212.14599609375	-195.5507049560547	727.1049804687501	-1296.063232421875	-161.8534393310547	738.6461181640626	-1261.701293945313	-129.295394897461	726.6830444335939	-1312.41650390625	-79.63396453857423	711.5331420898439	-1328.585205078125	-66.55941772460939	645.7160644531251	-1285.444702148438	169.0343627929688	746.2045898437501	-1288.11962890625	163.3073272705078	755.2020263671876	-1352.78173828125	249.8885040283204	769.9168090820315	-1290.51025390625	-324.2652587890626	751.7436523437501	-921.7580566406252	-186.4545288085938	719.1370849609376	-832.4111328125002	-159.5115966796875	747.4041748046876	-861.9863891601565	-115.8586959838867	716.2605590820314	-832.5549926757815	-49.63114547729494	722.6891479492189	-841.5819091796877	-44.93396377563477	667.9454956054689	-895.132995605469	188.1463470458985	755.1542968750001	-910.1556396484377	183.4292907714844	756.8038330078126	-844.1431884765627	261.7373657226563	780.4779052734377	-902.5803833007815	-426.8052673339845	363.9094848632813	-1139.555786132813	nan	nan	nan	-580.5421142578126	371.4087524414063	-1016.074035644531	-587.2931518554689	341.8007812500001	-1047.65869140625	-579.8851318359376	334.4541931152344	-992.0330200195315	-400.9925537109376	307.8959960937501	-1218.692016601563	-332.1049194335938	358.1633911132813	-1210.161010742188	-337.3964233398438	395.5279541015626	-1179.93994140625	-274.7162170410157	339.1961059570313	-1222.575805664063	-129.5155944824219	347.5642089843751	-1188.554321289063	-128.6066284179688	371.5833740234376	-1057.112182617188	-165.817123413086	256.5710754394532	-1068.239990234375	-207.8155059814454	199.6649322509766	-1120.425537109375	-188.4991912841797	208.1553497314454	-1079.147705078125	-255.5701599121094	173.5819854736328	-1037.758544921875	-375.4538879394532	104.1069564819336	-1076.81494140625	-349.5117492675782	127.6649932861328	-993.7383422851565	-440.8536682128907	96.21225738525393	-1023.176147460938	-239.6579742431641	51.07797622680665	-1001.836364746094	-233.9627380371094	48.43554306030275	-1041.044189453125	-258.8495788574219	44.02936935424805	-1090.024780273438	-268.2131652832032	197.3127746582032	-865.906677246094	-209.1290893554688	227.8355102539063	-869.595642089844	-207.8333129882813	263.4140930175782	-875.3345947265627	-136.3617553710938	194.6907501220704	-892.4443969726565	-79.99517822265626	186.9396057128907	-900.2834472656252	-76.25598144531251	221.2967987060547	-1013.372619628906	57.88865661621095	209.7487792968751	-920.5307617187502	126.5083236694336	125.5925445556641	-903.3438720703127	136.9047088623047	172.4579315185547	-909.3746337890627	183.4115753173828	181.9403533935547	-942.8052368164065	312.2012329101563	94.72731018066408	-920.8862915039065	302.9771728515626	126.935287475586	-998.7827148437502	308.8838500976563	40.85153579711915	-966.5375976562502	421.2213745117189	212.5753784179688	-983.5375976562502	416.602020263672	220.8042755126954	-936.2333984375002	420.9973754882814	185.3156890869141	-885.4249267578127	
778	3.885	-219.7000885009766	944.8206787109377	-1043.652954101563	-360.0900573730469	881.733825683594	-1145.282104492188	-350.1510314941407	885.6661376953127	-992.8295898437502	-411.4131774902345	786.2205810546877	-1056.755615234375	-552.1831665039064	503.7485961914064	-1024.576416015625	-301.4622497558594	686.0224609375001	-1065.772338867188	-333.8258056640626	754.5252075195314	-1212.31884765625	-195.3305358886719	726.9418334960939	-1296.112915039063	-161.5824127197266	738.3999633789064	-1261.711547851563	-129.0504913330078	726.4484863281251	-1312.366088867188	-79.3559036254883	711.2704467773439	-1328.481079101563	-66.42455291748048	645.3975219726564	-1285.31787109375	169.2290344238282	746.1552124023439	-1287.901977539063	163.8090209960938	755.0202026367189	-1352.565063476563	250.1255798339844	769.912536621094	-1290.255249023438	-324.2643432617188	751.6552734375001	-921.8657836914065	-186.3985137939453	718.9858398437501	-832.4382934570315	-159.5691986083985	747.2655029296876	-861.9511718750002	-115.8707427978516	716.0440063476564	-832.5086669921877	-49.66213989257814	722.5429687500001	-841.491149902344	-44.91199493408204	667.7141723632814	-895.0894165039065	188.0789489746094	754.9833374023439	-910.004333496094	183.4168701171875	756.5850219726564	-844.0144653320315	261.7644348144532	781.2920532226565	-902.7916259765627	-426.7696533203126	363.9222412109376	-1139.721801757813	nan	nan	nan	-580.3880004882814	371.1872253417969	-1016.102661132813	-587.1668090820314	341.6031494140626	-1047.764038085938	-579.7182617187501	334.1843261718751	-992.1679687500002	-401.0535888671876	307.6524658203126	-1219.077392578125	-332.1257324218751	357.9077758789063	-1210.6103515625	-337.3609619140626	395.7025146484376	-1180.7216796875	-274.5283508300782	338.8775329589844	-1222.862060546875	-129.35009765625	347.2620544433594	-1188.765747070313	-128.5946655273438	371.4461364746094	-1057.406982421875	-165.8585357666016	256.3954772949219	-1068.585693359375	-207.8083190917969	199.4137268066407	-1120.520629882813	-188.5162353515625	207.9693908691407	-1079.320068359375	-255.6750030517579	173.4974212646485	-1037.894653320313	-375.4741821289063	103.9851303100586	-1076.872314453125	-349.6265258789063	127.7874832153321	-993.8318481445315	-440.8838500976564	96.14976501464847	-1023.204772949219	-239.6932220458985	51.15872955322267	-1001.907653808594	-233.9101715087891	48.41575622558595	-1041.027099609375	-258.2174377441407	43.42844772338868	-1089.77294921875	-268.0763549804688	197.1311492919922	-866.1367187500002	-208.8878936767579	227.781967163086	-869.7456665039065	-207.7072753906251	263.2122192382813	-875.5171508789065	-136.2137451171875	194.5931854248047	-892.6387939453127	-79.84329986572267	186.8274230957032	-900.497253417969	-76.06973266601564	221.2107238769532	-1013.6025390625	58.07124328613283	209.5701141357422	-920.655700683594	126.6238708496094	125.5804672241211	-903.630065917969	137.0415191650391	172.2175750732422	-909.7341308593752	183.5079193115235	181.7420196533203	-943.0166625976565	312.3795776367188	94.48574066162111	-921.112487792969	303.1201171875001	126.7518386840821	-999.0141601562502	309.0426330566407	40.41315841674805	-966.870056152344	421.405487060547	212.1613922119141	-983.933044433594	416.8635559082032	220.0834503173829	-936.8656005859377	421.2413024902345	185.0224761962891	-885.8624267578127	
